<svg width="8" height="8" viewBox="0 0 8 8" fill="none" xmlns="http://www.w3.org/2000/svg">
<path d="M7.83145 7.02323C7.93876 7.13054 7.99905 7.27607 7.99905 7.42782C7.99905 7.57957 7.93876 7.72511 7.83145 7.83241C7.72414 7.93972 7.5786 8 7.42684 8C7.27508 8 7.12953 7.93972 7.02222 7.83241L4 4.80942L0.976823 7.83146C0.869513 7.93877 0.723969 7.99905 0.57221 7.99905C0.42045 7.99905 0.274907 7.93877 0.167596 7.83146C0.0602863 7.72416 1.59905e-09 7.57862 0 7.42687C-1.59905e-09 7.27512 0.0602863 7.12959 0.167596 7.02228L3.19077 4.00024L0.168548 0.977241C0.0612382 0.869937 0.000952052 0.724402 0.000952053 0.572652C0.000952055 0.420901 0.0612382 0.275366 0.168548 0.168062C0.275858 0.0607586 0.421402 0.000475909 0.573162 0.000475908C0.724921 0.000475906 0.870465 0.0607586 0.977775 0.168062L4 3.19106L7.02318 0.167586C7.13049 0.0602825 7.27603 -2.52816e-09 7.42779 0C7.57955 2.52816e-09 7.72509 0.0602825 7.8324 0.167586C7.93971 0.27489 8 0.420425 8 0.572176C8 0.723926 7.93971 0.869461 7.8324 0.976765L4.80923 4.00024L7.83145 7.02323Z" fill="#555555"/>
</svg>
