<svg width="8" height="6" viewBox="0 0 8 6" fill="none" xmlns="http://www.w3.org/2000/svg">
<path d="M6.77403 0.855677L3.99627 3.62867L1.21851 0.855677C1.15223 0.789509 1.07354 0.737023 0.986939 0.701213C0.900338 0.665404 0.807521 0.646973 0.713785 0.646973C0.62005 0.646973 0.527232 0.665404 0.440631 0.701213C0.354031 0.737023 0.275344 0.789509 0.209063 0.855677C0.142782 0.921844 0.0902048 1.0004 0.0543338 1.08685C0.0184627 1.1733 -6.98384e-10 1.26596 0 1.35953C6.98385e-10 1.45311 0.0184627 1.54576 0.0543338 1.63222C0.0902048 1.71867 0.142782 1.79722 0.209063 1.86339L3.49513 5.14381C3.77433 5.42254 4.22536 5.42254 4.50457 5.14381L7.79063 1.86339C7.857 1.79727 7.90966 1.71873 7.94558 1.63227C7.98151 1.54582 8 1.45313 8 1.35953C8 1.26593 7.98151 1.17325 7.94558 1.08679C7.90966 1.00033 7.857 0.921795 7.79063 0.855677C7.51143 0.584095 7.05324 0.576948 6.77403 0.855677Z" fill="#8C8C8C"/>
</svg>
