<svg width="16" height="16" viewBox="0 0 16 16" fill="none" xmlns="http://www.w3.org/2000/svg">
<path d="M8 12.4C9.864 12.4 11.44 11.232 12.088 9.6H3.912C4.552 11.232 6.136 12.4 8 12.4ZM5.2 7.2C5.51826 7.2 5.82348 7.07357 6.04853 6.84853C6.27357 6.62348 6.4 6.31826 6.4 6C6.4 5.68174 6.27357 5.37652 6.04853 5.15147C5.82348 4.92643 5.51826 4.8 5.2 4.8C4.88174 4.8 4.57652 4.92643 4.35147 5.15147C4.12643 5.37652 4 5.68174 4 6C4 6.31826 4.12643 6.62348 4.35147 6.84853C4.57652 7.07357 4.88174 7.2 5.2 7.2ZM10.8 7.2C11.1183 7.2 11.4235 7.07357 11.6485 6.84853C11.8736 6.62348 12 6.31826 12 6C12 5.68174 11.8736 5.37652 11.6485 5.15147C11.4235 4.92643 11.1183 4.8 10.8 4.8C10.4817 4.8 10.1765 4.92643 9.95147 5.15147C9.72643 5.37652 9.6 5.68174 9.6 6C9.6 6.31826 9.72643 6.62348 9.95147 6.84853C10.1765 7.07357 10.4817 7.2 10.8 7.2ZM8 14.4C6.30261 14.4 4.67475 13.7257 3.47452 12.5255C2.27428 11.3253 1.6 9.69739 1.6 8C1.6 6.30261 2.27428 4.67475 3.47452 3.47452C4.67475 2.27428 6.30261 1.6 8 1.6C9.69739 1.6 11.3253 2.27428 12.5255 3.47452C13.7257 4.67475 14.4 6.30261 14.4 8C14.4 9.69739 13.7257 11.3253 12.5255 12.5255C11.3253 13.7257 9.69739 14.4 8 14.4ZM8 0C3.576 0 0 3.6 0 8C0 10.1217 0.842855 12.1566 2.34315 13.6569C3.08601 14.3997 3.96793 14.989 4.93853 15.391C5.90914 15.7931 6.94943 16 8 16C10.1217 16 12.1566 15.1571 13.6569 13.6569C15.1571 12.1566 16 10.1217 16 8C16 6.94943 15.7931 5.90914 15.391 4.93853C14.989 3.96793 14.3997 3.08601 13.6569 2.34315C12.914 1.60028 12.0321 1.011 11.0615 0.608964C10.0909 0.206926 9.05058 0 8 0Z" fill="#D9D9D9"/>
</svg>
