<svg width="116" height="45" viewBox="0 0 116 45" fill="none" xmlns="http://www.w3.org/2000/svg">
<g clip-path="url(#clip0_795_25272)">
<mask id="mask0_795_25272" style="mask-type:luminance" maskUnits="userSpaceOnUse" x="0" y="0" width="22" height="45">
<path d="M21.2066 0H0V45H21.2066V0Z" fill="white"/>
</mask>
<g mask="url(#mask0_795_25272)">
<path d="M0 31.1375L7.2272 17.0812L0 5.73333V31.1375Z" fill="#444444"/>
<path d="M3.28052 45L21.2064 28.8021L9.7464 33.6542L3.28052 45Z" fill="#555555"/>
<path d="M17.3916 0L0.150635 32.7708L11.371 27.1833L21.0752 15.6521L17.3916 0Z" fill="#555555"/>
<path d="M11.371 27.1833L0.150635 32.7708L9.74662 33.6542L21.2067 28.8021L11.371 27.1833Z" fill="#444444"/>
</g>
<path d="M50.8025 27.9867C50.8025 29.2744 50.4479 30.351 49.7387 31.2167C49.051 32.061 48.1162 32.6944 46.9344 33.1167C45.7525 33.539 44.4524 33.75 43.0341 33.75H31.8811V11.2667H44.6135C45.6881 11.2667 46.612 11.5517 47.3857 12.1217C48.1807 12.6706 48.7825 13.3883 49.1908 14.275C49.6206 15.1617 49.8354 16.08 49.8354 17.03C49.8354 18.0856 49.5562 19.0989 48.9974 20.07C48.4386 21.02 47.6221 21.7377 46.5476 22.2233C47.8584 22.6033 48.8898 23.279 49.642 24.25C50.4157 25.221 50.8025 26.4667 50.8025 27.9867ZM45.4194 26.9417C45.4194 26.456 45.3227 26.034 45.1293 25.675C44.9359 25.295 44.678 24.9994 44.3557 24.7883C44.0547 24.556 43.6896 24.44 43.2597 24.44H37.1675V29.3483H43.0341C43.4853 29.3483 43.883 29.2427 44.2267 29.0317C44.5921 28.8206 44.8822 28.5356 45.097 28.1767C45.3119 27.8177 45.4194 27.406 45.4194 26.9417ZM37.1675 15.7V20.355H42.3572C42.744 20.355 43.0985 20.2706 43.4209 20.1017C43.7646 19.9328 44.0441 19.6794 44.259 19.3417C44.4738 18.9828 44.5813 18.5394 44.5813 18.0117C44.5813 17.505 44.4846 17.0828 44.2912 16.745C44.1192 16.4072 43.883 16.1539 43.582 15.985C43.2811 15.795 42.9374 15.7 42.5506 15.7H37.1675ZM53.5818 33.75V17.125H58.7392V33.75H53.5818ZM53.5818 15.225V10.6333H58.7392V15.225H53.5818ZM68.8338 34.0667C67.3941 34.0667 65.9864 33.8344 64.6111 33.37C63.2359 32.9056 62.0755 32.2194 61.1299 31.3117L62.9027 28.1133C63.9342 28.8523 64.9335 29.4117 65.9005 29.7917C66.8889 30.1717 67.8131 30.3617 68.6726 30.3617C69.3387 30.3617 69.8545 30.256 70.2198 30.045C70.5852 29.834 70.7678 29.5067 70.7678 29.0633C70.7678 28.7467 70.6603 28.504 70.4455 28.335C70.2307 28.145 69.8975 27.976 69.4462 27.8283C69.0164 27.6806 68.4792 27.5223 67.8345 27.3533C66.5452 26.931 65.4706 26.5194 64.6111 26.1183C63.7516 25.7173 63.1069 25.2317 62.6771 24.6617C62.2472 24.0706 62.0324 23.3106 62.0324 22.3817C62.0324 21.2627 62.3117 20.2917 62.8705 19.4683C63.4507 18.6239 64.2674 17.9694 65.3203 17.505C66.3732 17.0406 67.6303 16.8083 69.0917 16.8083C70.2521 16.8083 71.3803 16.9878 72.4762 17.3467C73.5936 17.7056 74.6359 18.3072 75.6029 19.1517L73.6044 22.3183C72.6374 21.664 71.7779 21.189 71.0257 20.8933C70.2735 20.5978 69.5429 20.45 68.8338 20.45C68.4684 20.45 68.1355 20.4922 67.8345 20.5767C67.5336 20.6611 67.2866 20.8089 67.0932 21.02C66.9212 21.21 66.8353 21.4633 66.8353 21.78C66.8353 22.0967 66.9212 22.35 67.0932 22.54C67.2866 22.73 67.5767 22.899 67.9635 23.0467C68.3717 23.1733 68.8768 23.3317 69.4785 23.5217C70.8753 23.9227 72.0358 24.3344 72.9597 24.7567C73.8837 25.1577 74.5714 25.6644 75.0227 26.2767C75.4954 26.8677 75.7319 27.6594 75.7319 28.6517C75.7319 30.3406 75.1086 31.6706 73.8623 32.6417C72.6374 33.5917 70.9612 34.0667 68.8338 34.0667ZM86.5529 34.0667C85.113 34.0667 83.8345 33.845 82.7171 33.4017C81.5995 32.9373 80.6433 32.3144 79.8483 31.5333C79.0747 30.7523 78.4836 29.855 78.0754 28.8417C77.667 27.8073 77.463 26.7306 77.463 25.6117C77.463 24.0073 77.8175 22.5506 78.5267 21.2417C79.2572 19.9117 80.2995 18.8456 81.6534 18.0433C83.0072 17.22 84.6403 16.8083 86.5529 16.8083C88.4654 16.8083 90.0879 17.2094 91.4203 18.0117C92.7741 18.8139 93.8056 19.8694 94.5147 21.1783C95.2239 22.466 95.5785 23.87 95.5785 25.39C95.5785 25.6856 95.5568 25.981 95.514 26.2767C95.4924 26.551 95.471 26.794 95.4495 27.005H82.9427C83.0072 27.744 83.2112 28.3667 83.5552 28.8733C83.9204 29.38 84.3825 29.7706 84.9412 30.045C85.4998 30.2983 86.0909 30.425 86.7141 30.425C87.4877 30.425 88.2075 30.2456 88.8738 29.8867C89.5613 29.5277 90.0342 29.0423 90.2921 28.43L94.6759 29.6333C94.2461 30.499 93.6336 31.2694 92.8386 31.945C92.065 32.5994 91.1408 33.1167 90.0665 33.4967C89.0133 33.8767 87.8423 34.0667 86.5529 34.0667ZM82.8138 23.9017H90.1632C90.0771 23.205 89.8731 22.6033 89.5507 22.0967C89.2284 21.569 88.7985 21.1677 88.2613 20.8933C87.724 20.5978 87.1332 20.45 86.4885 20.45C85.8222 20.45 85.2205 20.5978 84.6834 20.8933C84.1676 21.1677 83.7486 21.569 83.4263 22.0967C83.1039 22.6033 82.8997 23.205 82.8138 23.9017ZM106.059 34.0667C104.619 34.0667 103.33 33.8344 102.191 33.37C101.074 32.9056 100.128 32.2723 99.3545 31.47C98.5809 30.6677 97.9899 29.7494 97.5816 28.715C97.1948 27.6806 97.0014 26.5933 97.0014 25.4533C97.0014 24.2923 97.1948 23.1944 97.5816 22.16C97.9899 21.1256 98.5809 20.2072 99.3545 19.405C100.128 18.6028 101.074 17.9694 102.191 17.505C103.33 17.0406 104.619 16.8083 106.059 16.8083C107.499 16.8083 108.778 17.0406 109.895 17.505C111.012 17.9694 111.958 18.6028 112.732 19.405C113.505 20.2072 114.096 21.1256 114.504 22.16C114.913 23.1944 115.117 24.2923 115.117 25.4533C115.117 26.5933 114.913 27.6806 114.504 28.715C114.096 29.7494 113.505 30.6677 112.732 31.47C111.958 32.2723 111.012 32.9056 109.895 33.37C108.778 33.8344 107.499 34.0667 106.059 34.0667ZM102.288 25.4533C102.288 26.319 102.449 27.079 102.771 27.7333C103.115 28.3877 103.566 28.8944 104.125 29.2533C104.684 29.6123 105.329 29.7917 106.059 29.7917C106.768 29.7917 107.402 29.6123 107.961 29.2533C108.541 28.8733 108.992 28.356 109.315 27.7017C109.637 27.0473 109.798 26.2977 109.798 25.4533C109.798 24.5877 109.637 23.8277 109.315 23.1733C108.992 22.519 108.541 22.0123 107.961 21.6533C107.402 21.2944 106.768 21.115 106.059 21.115C105.329 21.115 104.684 21.2944 104.125 21.6533C103.566 22.0123 103.115 22.519 102.771 23.1733C102.449 23.8277 102.288 24.5877 102.288 25.4533Z" fill="#444444"/>
</g>
<defs>
<clipPath id="clip0_795_25272">
<rect width="116" height="45" fill="white"/>
</clipPath>
</defs>
</svg>
