<svg width="15" height="14" viewBox="0 0 15 14" fill="none" xmlns="http://www.w3.org/2000/svg">
<path d="M14.7858 7.03059C14.8507 6.99449 14.9048 6.94169 14.9425 6.87766C14.9801 6.81363 15 6.74069 15 6.66641C15 6.59212 14.9801 6.51919 14.9425 6.45515C14.9048 6.39112 14.8507 6.33833 14.7858 6.30223L12.8841 5.24552C9.13658 3.16372 5.18606 1.47042 1.09416 0.192012L0.539999 0.0186722C0.477691 -0.000637081 0.411719 -0.00504634 0.347395 0.00579878C0.283072 0.0166439 0.222193 0.0424404 0.169659 0.0811123C0.117126 0.119784 0.0744056 0.170251 0.0449378 0.228449C0.01547 0.286648 7.78587e-05 0.350952 3.81782e-07 0.416186L3.81782e-07 5.20802C-0.000144177 5.31488 0.040768 5.41771 0.114282 5.49526C0.187795 5.57281 0.288291 5.61915 0.395 5.6247L1.23666 5.66887C3.28789 5.77647 5.32659 6.05467 7.33165 6.50057L7.52998 6.54474C7.57415 6.5539 7.59332 6.57224 7.60415 6.5864C7.62041 6.60987 7.62887 6.63786 7.62832 6.66641C7.62832 6.69974 7.61748 6.72808 7.60415 6.74641C7.59332 6.76058 7.57415 6.77891 7.52998 6.78808L7.33165 6.83225C5.32627 7.2781 3.28732 7.55656 1.23583 7.66477L0.394166 7.70894C0.287749 7.7147 0.187582 7.76101 0.114266 7.83836C0.0409498 7.91571 5.80315e-05 8.01822 3.81782e-07 8.12479L3.81782e-07 12.9166C-3.59589e-06 12.9821 0.0153983 13.0466 0.0449591 13.1049C0.0745198 13.1633 0.117409 13.2139 0.170153 13.2526C0.222898 13.2913 0.284016 13.317 0.348559 13.3277C0.413102 13.3384 0.479256 13.3338 0.541666 13.3141L1.095 13.1408C5.18632 11.8623 9.13627 10.169 12.8833 8.08729L14.7858 7.03059Z" fill="#065DAC"/>
</svg>
