<svg width="11" height="12" viewBox="0 0 11 12" fill="none" xmlns="http://www.w3.org/2000/svg">
<path d="M4.41667 9.25016C4.56033 9.25016 4.6981 9.19309 4.79968 9.09151C4.90127 8.98993 4.95833 8.85215 4.95833 8.7085V5.4585C4.95833 5.31484 4.90127 5.17706 4.79968 5.07548C4.6981 4.9739 4.56033 4.91683 4.41667 4.91683C4.27301 4.91683 4.13523 4.9739 4.03365 5.07548C3.93207 5.17706 3.875 5.31484 3.875 5.4585V8.7085C3.875 8.85215 3.93207 8.98993 4.03365 9.09151C4.13523 9.19309 4.27301 9.25016 4.41667 9.25016ZM9.83333 2.75016H7.66667V2.2085C7.66667 1.77752 7.49546 1.36419 7.19072 1.05945C6.88597 0.754701 6.47264 0.583496 6.04167 0.583496H4.95833C4.52736 0.583496 4.11403 0.754701 3.80928 1.05945C3.50454 1.36419 3.33333 1.77752 3.33333 2.2085V2.75016H1.16667C1.02301 2.75016 0.885233 2.80723 0.78365 2.90881C0.682068 3.0104 0.625 3.14817 0.625 3.29183C0.625 3.43549 0.682068 3.57326 0.78365 3.67485C0.885233 3.77643 1.02301 3.8335 1.16667 3.8335H1.70833V9.79183C1.70833 10.2228 1.87954 10.6361 2.18428 10.9409C2.48903 11.2456 2.90236 11.4168 3.33333 11.4168H7.66667C8.09764 11.4168 8.51097 11.2456 8.81572 10.9409C9.12046 10.6361 9.29167 10.2228 9.29167 9.79183V3.8335H9.83333C9.97699 3.8335 10.1148 3.77643 10.2164 3.67485C10.3179 3.57326 10.375 3.43549 10.375 3.29183C10.375 3.14817 10.3179 3.0104 10.2164 2.90881C10.1148 2.80723 9.97699 2.75016 9.83333 2.75016ZM4.41667 2.2085C4.41667 2.06484 4.47374 1.92706 4.57532 1.82548C4.6769 1.7239 4.81467 1.66683 4.95833 1.66683H6.04167C6.18533 1.66683 6.3231 1.7239 6.42468 1.82548C6.52627 1.92706 6.58333 2.06484 6.58333 2.2085V2.75016H4.41667V2.2085ZM8.20833 9.79183C8.20833 9.93549 8.15127 10.0733 8.04968 10.1748C7.9481 10.2764 7.81033 10.3335 7.66667 10.3335H3.33333C3.18967 10.3335 3.0519 10.2764 2.95032 10.1748C2.84874 10.0733 2.79167 9.93549 2.79167 9.79183V3.8335H8.20833V9.79183ZM6.58333 9.25016C6.72699 9.25016 6.86477 9.19309 6.96635 9.09151C7.06793 8.98993 7.125 8.85215 7.125 8.7085V5.4585C7.125 5.31484 7.06793 5.17706 6.96635 5.07548C6.86477 4.9739 6.72699 4.91683 6.58333 4.91683C6.43967 4.91683 6.3019 4.9739 6.20032 5.07548C6.09874 5.17706 6.04167 5.31484 6.04167 5.4585V8.7085C6.04167 8.85215 6.09874 8.98993 6.20032 9.09151C6.3019 9.19309 6.43967 9.25016 6.58333 9.25016Z" fill="#D9D9D9"/>
</svg>
