<svg xmlns="http://www.w3.org/2000/svg" width="5" height="5" viewBox="0 0 5 6" fill="none">
  <path d="M4.89466 4.88952C4.96173 4.95659 4.9994 5.04755 4.9994 5.14239C4.9994 5.23723 4.96173 5.32819 4.89466 5.39526C4.82759 5.46232 4.73662 5.5 4.64177 5.5C4.54692 5.5 4.45596 5.46232 4.38889 5.39526L2.5 3.50589L0.610515 5.39466C0.543446 5.46173 0.452481 5.4994 0.357631 5.4994C0.262782 5.4994 0.171817 5.46173 0.104748 5.39466C0.0376789 5.3276 9.99404e-10 5.23664 0 5.1418C-9.99404e-10 5.04695 0.0376789 4.95599 0.104748 4.88893L1.99423 3.00015L0.105343 1.11078C0.0382739 1.04371 0.000595032 0.952751 0.000595033 0.857907C0.000595034 0.763063 0.0382739 0.672104 0.105343 0.605039C0.172412 0.537974 0.263376 0.500297 0.358226 0.500297C0.453076 0.500297 0.544041 0.537974 0.61111 0.605039L2.5 2.49441L4.38949 0.604741C4.45655 0.537677 4.54752 0.5 4.64237 0.5C4.73722 0.5 4.82818 0.537677 4.89525 0.604741C4.96232 0.671806 5 0.762766 5 0.85761C5 0.952454 4.96232 1.04341 4.89525 1.11048L3.00577 3.00015L4.89466 4.88952Z" fill="#8C8C8C"/>
</svg>
