<svg width="60" height="23" viewBox="0 0 60 23" fill="none" xmlns="http://www.w3.org/2000/svg">
    <g clip-path="url(#clip0_178_15050)">
        <mask id="mask0_178_15050" style="mask-type:luminance" maskUnits="userSpaceOnUse" x="0" y="0" width="11"
              height="23">
            <path d="M10.9689 0H0V23H10.9689V0Z" fill="white"/>
        </mask>
        <g mask="url(#mask0_178_15050)">
            <path d="M0 15.9147L3.73821 8.73041L0 2.93036V15.9147Z" fill="#444444"/>
            <path d="M1.69678 23L10.9688 14.7211L5.0412 17.201L1.69678 23Z" fill="#555555"/>
            <path d="M8.99562 0L0.0778809 16.7495L5.88154 13.8937L10.9009 7.99995L8.99562 0Z" fill="#555555"/>
            <path d="M5.88154 13.8937L0.0778809 16.7495L5.04132 17.201L10.9689 14.721L5.88154 13.8937Z" fill="#444444"/>
        </g>
        <path d="M26.2771 14.3043C26.2771 14.9625 26.0937 15.5128 25.7269 15.9552C25.3712 16.3868 24.8877 16.7105 24.2764 16.9263C23.6651 17.1421 22.9926 17.25 22.259 17.25H16.4902V5.75852H23.076C23.6318 5.75852 24.1097 5.90418 24.5098 6.19552C24.9211 6.47606 25.2324 6.84292 25.4435 7.29611C25.6658 7.7493 25.777 8.21867 25.777 8.70422C25.777 9.24373 25.6325 9.76166 25.3435 10.258C25.0544 10.7436 24.6321 11.1104 24.0763 11.3586C24.7543 11.5528 25.2879 11.8981 25.6769 12.3944C26.0771 12.8908 26.2771 13.5274 26.2771 14.3043ZM23.4928 13.7702C23.4928 13.522 23.4428 13.3062 23.3427 13.1228C23.2427 12.9286 23.1093 12.7775 22.9426 12.6696C22.7869 12.5509 22.5981 12.4916 22.3757 12.4916H19.2246V15.0003H22.259C22.4924 15.0003 22.6981 14.9463 22.8759 14.8384C23.0649 14.7305 23.215 14.5849 23.3261 14.4014C23.4372 14.2179 23.4928 14.0075 23.4928 13.7702ZM19.2246 8.02444V10.4037H21.9089C22.109 10.4037 22.2924 10.3605 22.4591 10.2742C22.6369 10.1879 22.7815 10.0584 22.8926 9.88574C23.0037 9.7023 23.0593 9.47571 23.0593 9.20596C23.0593 8.947 23.0093 8.73119 22.9092 8.55855C22.8203 8.38592 22.6981 8.25643 22.5424 8.17011C22.3868 8.073 22.209 8.02444 22.0089 8.02444H19.2246ZM27.7147 17.25V8.75278H30.3824V17.25H27.7147ZM27.7147 7.78167V5.43481H30.3824V7.78167H27.7147ZM35.6037 17.4119C34.859 17.4119 34.1309 17.2931 33.4196 17.0558C32.7082 16.8184 32.108 16.4677 31.6189 16.0037L32.5359 14.369C33.0694 14.7467 33.5863 15.0326 34.0865 15.2269C34.5977 15.4211 35.0758 15.5182 35.5203 15.5182C35.8649 15.5182 36.1316 15.4642 36.3206 15.3563C36.5096 15.2485 36.6041 15.0812 36.6041 14.8546C36.6041 14.6927 36.5484 14.5687 36.4373 14.4823C36.3262 14.3852 36.1539 14.2989 35.9205 14.2234C35.6981 14.1479 35.4203 14.0669 35.0868 13.9806C34.4199 13.7648 33.8641 13.5543 33.4196 13.3494C32.975 13.1444 32.6415 12.8962 32.4192 12.6049C32.1969 12.3028 32.0857 11.9143 32.0857 11.4395C32.0857 10.8676 32.2302 10.3713 32.5192 9.95048C32.8193 9.51888 33.2418 9.18438 33.7864 8.947C34.331 8.70962 34.9812 8.59093 35.7371 8.59093C36.3373 8.59093 36.9208 8.68264 37.4877 8.86607C38.0657 9.04951 38.6048 9.35703 39.105 9.78863L38.0713 11.4071C37.5711 11.0727 37.1265 10.8299 36.7374 10.6788C36.3484 10.5277 35.9705 10.4522 35.6037 10.4522C35.4147 10.4522 35.2425 10.4738 35.0868 10.517C34.9312 10.5601 34.8034 10.6357 34.7034 10.7436C34.6144 10.8407 34.57 10.9701 34.57 11.132C34.57 11.2939 34.6144 11.4233 34.7034 11.5204C34.8034 11.6176 34.9535 11.7039 35.1535 11.7794C35.3647 11.8441 35.626 11.9251 35.9371 12.0222C36.6597 12.2272 37.2599 12.4376 37.7378 12.6534C38.2157 12.8584 38.5714 13.1173 38.8049 13.4303C39.0494 13.7324 39.1717 14.137 39.1717 14.6442C39.1717 15.5074 38.8493 16.1872 38.2046 16.6835C37.5711 17.1691 36.7041 17.4119 35.6037 17.4119ZM44.7688 17.4119C44.024 17.4119 43.3627 17.2986 42.7847 17.072C42.2067 16.8346 41.7121 16.5162 41.3008 16.117C40.9007 15.7178 40.595 15.2592 40.3838 14.7413C40.1726 14.2126 40.0671 13.6623 40.0671 13.0904C40.0671 12.2704 40.2505 11.5259 40.6173 10.8569C40.9951 10.1771 41.5343 9.63218 42.2345 9.22215C42.9348 8.80133 43.7795 8.59093 44.7688 8.59093C45.758 8.59093 46.5972 8.79593 47.2864 9.20596C47.9866 9.61599 48.5201 10.1555 48.8869 10.8245C49.2537 11.4826 49.4371 12.2002 49.4371 12.9771C49.4371 13.1282 49.426 13.2792 49.4038 13.4303C49.3926 13.5705 49.3815 13.6947 49.3705 13.8026H42.9014C42.9348 14.1802 43.0403 14.4985 43.2182 14.7575C43.4071 15.0164 43.6461 15.2161 43.9351 15.3563C44.2241 15.4858 44.5298 15.5506 44.8521 15.5506C45.2523 15.5506 45.6246 15.4589 45.9692 15.2754C46.3248 15.0919 46.5694 14.8438 46.7028 14.5309L48.9703 15.1459C48.748 15.5884 48.4312 15.9821 48.02 16.3274C47.6198 16.6619 47.1418 16.9263 46.5861 17.1205C46.0414 17.3147 45.4357 17.4119 44.7688 17.4119ZM42.8347 12.2164H46.6361C46.5916 11.8603 46.4861 11.5528 46.3193 11.2939C46.1526 11.0241 45.9303 10.8191 45.6524 10.6788C45.3745 10.5277 45.0689 10.4522 44.7354 10.4522C44.3908 10.4522 44.0796 10.5277 43.8018 10.6788C43.535 10.8191 43.3182 11.0241 43.1515 11.2939C42.9848 11.5528 42.8792 11.8603 42.8347 12.2164ZM54.8582 17.4119C54.1135 17.4119 53.4466 17.2931 52.8575 17.0558C52.2795 16.8184 51.7904 16.4947 51.3903 16.0847C50.9901 15.6746 50.6844 15.2052 50.4733 14.6766C50.2732 14.1479 50.1732 13.5921 50.1732 13.0095C50.1732 12.4161 50.2732 11.8549 50.4733 11.3262C50.6844 10.7975 50.9901 10.3281 51.3903 9.91811C51.7904 9.50808 52.2795 9.18438 52.8575 8.947C53.4466 8.70962 54.1135 8.59093 54.8582 8.59093C55.6029 8.59093 56.2643 8.70962 56.8423 8.947C57.4202 9.18438 57.9093 9.50808 58.3095 9.91811C58.7096 10.3281 59.0153 10.7975 59.2265 11.3262C59.4376 11.8549 59.5433 12.4161 59.5433 13.0095C59.5433 13.5921 59.4376 14.1479 59.2265 14.6766C59.0153 15.2052 58.7096 15.6746 58.3095 16.0847C57.9093 16.4947 57.4202 16.8184 56.8423 17.0558C56.2643 17.2931 55.6029 17.4119 54.8582 17.4119ZM52.9075 13.0095C52.9075 13.4519 52.9909 13.8404 53.1576 14.1748C53.3354 14.5093 53.5688 14.7682 53.8578 14.9517C54.1469 15.1352 54.4803 15.2269 54.8582 15.2269C55.225 15.2269 55.5529 15.1352 55.8419 14.9517C56.142 14.7575 56.3754 14.4931 56.5422 14.1586C56.7089 13.8242 56.7922 13.441 56.7922 13.0095C56.7922 12.567 56.7089 12.1786 56.5422 11.8441C56.3754 11.5097 56.142 11.2507 55.8419 11.0673C55.5529 10.8838 55.225 10.7921 54.8582 10.7921C54.4803 10.7921 54.1469 10.8838 53.8578 11.0673C53.5688 11.2507 53.3354 11.5097 53.1576 11.8441C52.9909 12.1786 52.9075 12.567 52.9075 13.0095Z"
              fill="#555555"/>
    </g>
    <defs>
        <clipPath id="clip0_178_15050">
            <rect width="60" height="23" fill="white"/>
        </clipPath>
    </defs>
</svg>
