<svg width="14" height="14" viewBox="0 0 14 14" fill="#FFFFFF" xmlns="http://www.w3.org/2000/svg">
<path d="M7.00002 13C7.7881 13.001 8.56861 12.8463 9.2967 12.5447C10.0248 12.2431 10.6861 11.8006 11.2426 11.2426C11.8006 10.6861 12.2431 10.0248 12.5447 9.2967C12.8463 8.56861 13.001 7.7881 13 7.00001C13.001 6.21193 12.8463 5.43143 12.5447 4.70334C12.2431 3.97525 11.8006 3.31394 11.2426 2.75741C10.6861 2.19941 10.0248 1.75691 9.2967 1.45531C8.56861 1.15372 7.7881 0.998984 7.00002 1.00001C6.21194 0.999 5.43143 1.15374 4.70334 1.45533C3.97525 1.75693 3.31394 2.19943 2.75741 2.75741C2.19943 3.31394 1.75693 3.97525 1.45533 4.70334C1.15374 5.43143 0.999 6.21193 1.00001 7.00001C0.998984 7.7881 1.15372 8.56861 1.45531 9.2967C1.75691 10.0248 2.19942 10.6861 2.75741 11.2426C3.31394 11.8006 3.97525 12.2431 4.70334 12.5447C5.43143 12.8463 6.21194 13.001 7.00002 13Z" stroke-linejoin="round"/>
<path d="M4.60034 6.99995L6.40035 8.79996L10.0004 5.19995" stroke-linecap="round" stroke-linejoin="round"/>
</svg>
